<svg width="40" height="34" viewBox="0 0 40 34" fill="none" xmlns="http://www.w3.org/2000/svg">
<path id="Twitter" fill-rule="evenodd" clip-rule="evenodd" d="M34.6578 5.20825C36.3226 4.1804 37.6001 2.55059 38.2019 0.609097C36.6431 1.56081 34.9206 2.25318 33.0805 2.62435C31.614 1.00882 29.5179 0 27.1982 0C22.7501 0 19.1413 3.72358 19.1413 8.31559C19.1413 8.96752 19.2105 9.60041 19.3489 10.2095C12.6502 9.86213 6.71249 6.55492 2.7348 1.51798C2.04073 2.75045 1.64411 4.1804 1.64411 5.70314C1.64411 8.58683 3.06685 11.1327 5.22979 12.6245C3.91082 12.584 2.66563 12.2057 1.57724 11.5871V11.6894C1.57724 15.7199 4.35585 19.0819 8.0453 19.8432C7.36967 20.0383 6.65715 20.1359 5.92157 20.1359C5.40274 20.1359 4.89544 20.0859 4.40428 19.9884C5.43041 23.2908 8.40503 25.6963 11.9331 25.7605C9.1752 27.9923 5.69789 29.3223 1.92313 29.3223C1.27286 29.3223 0.629512 29.2842 0 29.2081C3.56724 31.5636 7.80549 32.9412 12.355 32.9412C27.182 32.9412 35.2873 20.2715 35.2873 9.28158C35.2873 8.91993 35.2804 8.55828 35.2665 8.20377C36.8415 7.03078 38.2089 5.56752 39.2857 3.89965C37.8422 4.56109 36.288 5.00839 34.6578 5.20825Z" fill="#68C6E1"/>
</svg>
